M48
; DRILL file {KiCad (5.1.0)-1} date 2019/06/23 0:58:36
; FORMAT={-:-/ absolute / metric / decimal}
; #@! TF.CreationDate,2019-06-23T00:58:36+09:00
; #@! TF.GenerationSoftware,Kicad,Pcbnew,(5.1.0)-1
; #@! TF.FileFunction,Plated,1,2,PTH
FMAT,2
METRIC
T1C0.400
T2C0.800
T3C1.000
T4C1.050
T5C4.500
%
G90
G05
T1
X94.742Y-138.938
X94.742Y-139.954
X94.742Y-140.97
X94.742Y-141.986
X94.742Y-143.002
X94.742Y-144.018
X95.758Y-138.938
X95.758Y-139.954
X95.758Y-140.97
X95.758Y-141.986
X95.758Y-143.002
X95.758Y-144.018
X96.774Y-138.938
X96.774Y-139.954
X96.774Y-140.97
X96.774Y-141.986
X96.774Y-143.002
X96.774Y-144.018
X97.79Y-119.126
X97.79Y-120.142
X97.79Y-121.158
X97.79Y-122.174
X97.79Y-122.174
X97.79Y-123.19
X97.79Y-124.206
X97.79Y-125.222
X97.79Y-126.238
X97.79Y-127.254
X97.79Y-138.938
X97.79Y-139.954
X97.79Y-140.97
X97.79Y-141.986
X97.79Y-143.002
X97.79Y-144.018
X98.806Y-119.126
X98.806Y-120.142
X98.806Y-121.158
X98.806Y-122.174
X98.806Y-123.19
X98.806Y-124.206
X98.806Y-125.222
X98.806Y-126.238
X98.806Y-127.254
X98.806Y-138.938
X98.806Y-139.954
X98.806Y-140.97
X98.806Y-141.986
X98.806Y-143.002
X98.806Y-144.018
X99.822Y-119.126
X99.822Y-120.142
X99.822Y-121.158
X99.822Y-122.174
X99.822Y-123.19
X99.822Y-124.206
X99.822Y-125.222
X99.822Y-126.238
X99.822Y-127.254
X99.822Y-138.938
X99.822Y-139.954
X99.822Y-140.97
X99.822Y-141.986
X99.822Y-143.002
X104.14Y-119.38
X104.14Y-120.65
X104.14Y-121.92
X104.14Y-123.19
X104.14Y-124.46
X104.14Y-125.73
X104.14Y-127.0
X104.14Y-142.24
X104.14Y-143.51
X104.14Y-144.78
X104.14Y-146.05
X105.41Y-119.38
X105.41Y-127.0
X105.41Y-142.24
X105.41Y-146.05
X105.664Y-150.114
X105.664Y-151.13
X105.664Y-152.146
X105.664Y-153.162
X105.664Y-154.178
X106.68Y-119.38
X106.68Y-127.0
X106.68Y-142.24
X106.68Y-146.05
X106.68Y-150.114
X106.68Y-151.13
X106.68Y-152.146
X106.68Y-153.162
X106.68Y-154.178
X107.696Y-150.114
X107.696Y-151.13
X107.696Y-152.146
X107.696Y-153.162
X107.696Y-154.178
X107.95Y-119.38
X107.95Y-127.0
X107.95Y-146.05
X108.204Y-142.24
X108.712Y-93.472
X109.22Y-119.38
X109.22Y-120.65
X109.22Y-121.92
X109.22Y-123.19
X109.22Y-124.46
X109.22Y-125.73
X109.22Y-127.0
X109.22Y-142.24
X109.22Y-143.51
X109.22Y-144.78
X109.22Y-146.05
X110.236Y-150.114
X110.236Y-151.13
X110.236Y-152.146
X110.236Y-153.162
X110.236Y-154.178
X111.252Y-150.114
X111.252Y-151.13
X111.252Y-152.146
X111.252Y-153.162
X111.252Y-154.178
X116.84Y-138.938
X116.84Y-139.954
X116.84Y-140.97
X116.84Y-141.986
X116.84Y-143.002
X116.84Y-144.018
X116.84Y-145.034
X116.84Y-146.05
X116.84Y-147.066
X117.856Y-138.938
X117.856Y-139.954
X117.856Y-140.97
X117.856Y-141.986
X117.856Y-143.002
X117.856Y-144.018
X117.856Y-145.034
X117.856Y-146.05
X117.856Y-147.066
X118.872Y-138.938
X118.872Y-139.954
X118.872Y-140.97
X118.872Y-141.986
X118.872Y-143.002
X118.872Y-144.018
X118.872Y-145.034
X118.872Y-146.05
X118.872Y-147.066
X119.38Y-119.38
X119.38Y-120.65
X119.38Y-121.92
X119.38Y-123.19
X119.38Y-124.46
X119.38Y-125.73
X119.38Y-127.0
X119.888Y-138.938
X119.888Y-139.954
X119.888Y-140.97
X119.888Y-141.986
X119.888Y-143.002
X119.888Y-144.018
X119.888Y-145.034
X119.888Y-146.05
X119.888Y-147.066
X120.65Y-119.38
X120.65Y-127.0
X120.904Y-138.938
X120.904Y-139.954
X120.904Y-140.97
X120.904Y-141.986
X120.904Y-143.002
X120.904Y-144.018
X120.904Y-145.034
X120.904Y-146.05
X120.904Y-147.066
X121.158Y-150.114
X121.158Y-151.13
X121.158Y-152.146
X121.158Y-153.162
X121.158Y-154.178
X121.92Y-119.38
X121.92Y-127.0
X121.92Y-138.938
X121.92Y-139.954
X121.92Y-140.97
X121.92Y-141.986
X121.92Y-143.002
X121.92Y-144.018
X121.92Y-145.034
X121.92Y-146.05
X121.92Y-147.066
X122.174Y-95.504
X122.174Y-150.114
X122.174Y-151.13
X122.174Y-152.146
X122.174Y-153.162
X122.174Y-154.178
X122.936Y-138.938
X122.936Y-139.954
X122.936Y-140.97
X122.936Y-141.986
X122.936Y-143.002
X122.936Y-144.018
X122.936Y-145.034
X122.936Y-146.05
X122.936Y-147.066
X123.19Y-119.38
X123.19Y-127.0
X123.19Y-150.114
X123.19Y-151.13
X123.19Y-152.146
X123.19Y-153.162
X123.19Y-154.178
X123.952Y-138.938
X123.952Y-139.954
X123.952Y-140.97
X123.952Y-141.986
X123.952Y-143.002
X123.952Y-144.018
X123.952Y-145.034
X123.952Y-146.05
X123.952Y-147.066
X124.46Y-119.38
X124.46Y-120.65
X124.46Y-121.92
X124.46Y-123.19
X124.46Y-124.46
X124.46Y-125.73
X124.46Y-127.0
X124.968Y-138.938
X124.968Y-139.954
X124.968Y-140.97
X124.968Y-141.986
X124.968Y-143.002
X124.968Y-144.018
X124.968Y-145.034
X124.968Y-146.05
X124.968Y-147.066
X125.73Y-150.114
X125.73Y-151.13
X125.73Y-152.146
X125.73Y-153.162
X125.73Y-154.178
X125.984Y-138.938
X125.984Y-139.954
X125.984Y-140.97
X125.984Y-141.986
X125.984Y-143.002
X125.984Y-144.018
X125.984Y-145.034
X125.984Y-146.05
X125.984Y-147.066
X126.746Y-150.114
X126.746Y-151.13
X126.746Y-152.146
X126.746Y-153.162
X126.746Y-154.178
X127.0Y-138.938
X127.0Y-139.954
X127.0Y-140.97
X127.0Y-141.986
X127.0Y-143.002
X127.0Y-144.018
X127.0Y-145.034
X127.0Y-146.05
X127.0Y-147.066
X135.128Y-87.63
X136.652Y-122.428
X136.652Y-136.398
X137.922Y-122.428
X137.922Y-136.652
X140.97Y-110.861
X141.986Y-112.014
X142.748Y-107.071
X142.748Y-97.79
X147.32Y-91.948
X147.828Y-104.394
X148.971Y-104.394
X150.114Y-104.511
X150.622Y-108.204
X150.622Y-109.22
X151.511Y-92.202
X153.416Y-117.348
X154.248Y-116.539
X154.432Y-92.964
X155.448Y-115.824
X160.02Y-116.84
X161.29Y-115.824
X163.068Y-115.062
T2
X159.512Y-101.092
X167.132Y-101.092
X89.702Y-102.616
X92.202Y-102.616
X147.193Y-133.096
X147.193Y-135.636
X147.193Y-138.176
X147.193Y-140.716
X154.813Y-133.096
X154.813Y-135.636
X154.813Y-138.176
X154.813Y-140.716
X89.702Y-111.76
X92.202Y-111.76
X127.254Y-101.219
X127.254Y-103.759
X127.254Y-106.299
X127.254Y-108.839
X134.874Y-101.219
X134.874Y-103.759
X134.874Y-106.299
X134.874Y-108.839
T3
X127.668Y-89.662
X130.168Y-89.662
X132.668Y-89.662
X135.168Y-89.662
X137.668Y-89.662
X144.9Y-89.662
X147.4Y-89.662
X149.9Y-89.662
X152.4Y-89.662
T4
X115.229Y-89.535
X117.729Y-89.535
T5
X90.805Y-124.286
X90.805Y-131.486
X90.805Y-141.478
X90.805Y-148.678
T0
M30
