G04 #@! TF.GenerationSoftware,KiCad,Pcbnew,(5.1.0)-1*
G04 #@! TF.CreationDate,2019-06-23T00:58:32+09:00*
G04 #@! TF.ProjectId,md_ver1.00.0,6d645f76-6572-4312-9e30-302e302e6b69,rev?*
G04 #@! TF.SameCoordinates,Original*
G04 #@! TF.FileFunction,Soldermask,Bot*
G04 #@! TF.FilePolarity,Negative*
%FSLAX46Y46*%
G04 Gerber Fmt 4.6, Leading zero omitted, Abs format (unit mm)*
G04 Created by KiCad (PCBNEW (5.1.0)-1) date 2019-06-23 00:58:32*
%MOMM*%
%LPD*%
G04 APERTURE LIST*
%ADD10C,0.100000*%
G04 APERTURE END LIST*
D10*
G36*
X91694943Y-145744248D02*
G01*
X92250189Y-145974238D01*
X92250190Y-145974239D01*
X92749899Y-146308134D01*
X93174866Y-146733101D01*
X93174867Y-146733103D01*
X93508762Y-147232811D01*
X93738752Y-147788057D01*
X93856000Y-148377501D01*
X93856000Y-148978499D01*
X93738752Y-149567943D01*
X93508762Y-150123189D01*
X93508761Y-150123190D01*
X93174866Y-150622899D01*
X92749899Y-151047866D01*
X92498347Y-151215948D01*
X92250189Y-151381762D01*
X91694943Y-151611752D01*
X91105499Y-151729000D01*
X90504501Y-151729000D01*
X89915057Y-151611752D01*
X89359811Y-151381762D01*
X89111653Y-151215948D01*
X88860101Y-151047866D01*
X88435134Y-150622899D01*
X88101239Y-150123190D01*
X88101238Y-150123189D01*
X87871248Y-149567943D01*
X87754000Y-148978499D01*
X87754000Y-148377501D01*
X87871248Y-147788057D01*
X88101238Y-147232811D01*
X88435133Y-146733103D01*
X88435134Y-146733101D01*
X88860101Y-146308134D01*
X89359810Y-145974239D01*
X89359811Y-145974238D01*
X89915057Y-145744248D01*
X90504501Y-145627000D01*
X91105499Y-145627000D01*
X91694943Y-145744248D01*
X91694943Y-145744248D01*
G37*
G36*
X91694943Y-138544248D02*
G01*
X92250189Y-138774238D01*
X92418955Y-138887004D01*
X92749899Y-139108134D01*
X93174866Y-139533101D01*
X93174867Y-139533103D01*
X93508762Y-140032811D01*
X93738752Y-140588057D01*
X93856000Y-141177501D01*
X93856000Y-141778499D01*
X93738752Y-142367943D01*
X93508762Y-142923189D01*
X93508761Y-142923190D01*
X93174866Y-143422899D01*
X92749899Y-143847866D01*
X92498347Y-144015948D01*
X92250189Y-144181762D01*
X91694943Y-144411752D01*
X91105499Y-144529000D01*
X90504501Y-144529000D01*
X89915057Y-144411752D01*
X89359811Y-144181762D01*
X89111653Y-144015948D01*
X88860101Y-143847866D01*
X88435134Y-143422899D01*
X88101239Y-142923190D01*
X88101238Y-142923189D01*
X87871248Y-142367943D01*
X87754000Y-141778499D01*
X87754000Y-141177501D01*
X87871248Y-140588057D01*
X88101238Y-140032811D01*
X88435133Y-139533103D01*
X88435134Y-139533101D01*
X88860101Y-139108134D01*
X89191045Y-138887004D01*
X89359811Y-138774238D01*
X89915057Y-138544248D01*
X90504501Y-138427000D01*
X91105499Y-138427000D01*
X91694943Y-138544248D01*
X91694943Y-138544248D01*
G37*
G36*
X155664000Y-141567000D02*
G01*
X153962000Y-141567000D01*
X153962000Y-139865000D01*
X155664000Y-139865000D01*
X155664000Y-141567000D01*
X155664000Y-141567000D01*
G37*
G36*
X147359823Y-139877313D02*
G01*
X147520242Y-139925976D01*
X147652906Y-139996886D01*
X147668078Y-140004996D01*
X147797659Y-140111341D01*
X147904004Y-140240922D01*
X147904005Y-140240924D01*
X147983024Y-140388758D01*
X148031687Y-140549177D01*
X148048117Y-140716000D01*
X148031687Y-140882823D01*
X147983024Y-141043242D01*
X147912114Y-141175906D01*
X147904004Y-141191078D01*
X147797659Y-141320659D01*
X147668078Y-141427004D01*
X147668076Y-141427005D01*
X147520242Y-141506024D01*
X147359823Y-141554687D01*
X147234804Y-141567000D01*
X147151196Y-141567000D01*
X147026177Y-141554687D01*
X146865758Y-141506024D01*
X146717924Y-141427005D01*
X146717922Y-141427004D01*
X146588341Y-141320659D01*
X146481996Y-141191078D01*
X146473886Y-141175906D01*
X146402976Y-141043242D01*
X146354313Y-140882823D01*
X146337883Y-140716000D01*
X146354313Y-140549177D01*
X146402976Y-140388758D01*
X146481995Y-140240924D01*
X146481996Y-140240922D01*
X146588341Y-140111341D01*
X146717922Y-140004996D01*
X146733094Y-139996886D01*
X146865758Y-139925976D01*
X147026177Y-139877313D01*
X147151196Y-139865000D01*
X147234804Y-139865000D01*
X147359823Y-139877313D01*
X147359823Y-139877313D01*
G37*
G36*
X154979823Y-137337313D02*
G01*
X155140242Y-137385976D01*
X155272906Y-137456886D01*
X155288078Y-137464996D01*
X155417659Y-137571341D01*
X155524004Y-137700922D01*
X155524005Y-137700924D01*
X155603024Y-137848758D01*
X155651687Y-138009177D01*
X155668117Y-138176000D01*
X155651687Y-138342823D01*
X155603024Y-138503242D01*
X155581105Y-138544249D01*
X155524004Y-138651078D01*
X155417659Y-138780659D01*
X155288078Y-138887004D01*
X155288076Y-138887005D01*
X155140242Y-138966024D01*
X154979823Y-139014687D01*
X154854804Y-139027000D01*
X154771196Y-139027000D01*
X154646177Y-139014687D01*
X154485758Y-138966024D01*
X154337924Y-138887005D01*
X154337922Y-138887004D01*
X154208341Y-138780659D01*
X154101996Y-138651078D01*
X154044895Y-138544249D01*
X154022976Y-138503242D01*
X153974313Y-138342823D01*
X153957883Y-138176000D01*
X153974313Y-138009177D01*
X154022976Y-137848758D01*
X154101995Y-137700924D01*
X154101996Y-137700922D01*
X154208341Y-137571341D01*
X154337922Y-137464996D01*
X154353094Y-137456886D01*
X154485758Y-137385976D01*
X154646177Y-137337313D01*
X154771196Y-137325000D01*
X154854804Y-137325000D01*
X154979823Y-137337313D01*
X154979823Y-137337313D01*
G37*
G36*
X147359823Y-137337313D02*
G01*
X147520242Y-137385976D01*
X147652906Y-137456886D01*
X147668078Y-137464996D01*
X147797659Y-137571341D01*
X147904004Y-137700922D01*
X147904005Y-137700924D01*
X147983024Y-137848758D01*
X148031687Y-138009177D01*
X148048117Y-138176000D01*
X148031687Y-138342823D01*
X147983024Y-138503242D01*
X147961105Y-138544249D01*
X147904004Y-138651078D01*
X147797659Y-138780659D01*
X147668078Y-138887004D01*
X147668076Y-138887005D01*
X147520242Y-138966024D01*
X147359823Y-139014687D01*
X147234804Y-139027000D01*
X147151196Y-139027000D01*
X147026177Y-139014687D01*
X146865758Y-138966024D01*
X146717924Y-138887005D01*
X146717922Y-138887004D01*
X146588341Y-138780659D01*
X146481996Y-138651078D01*
X146424895Y-138544249D01*
X146402976Y-138503242D01*
X146354313Y-138342823D01*
X146337883Y-138176000D01*
X146354313Y-138009177D01*
X146402976Y-137848758D01*
X146481995Y-137700924D01*
X146481996Y-137700922D01*
X146588341Y-137571341D01*
X146717922Y-137464996D01*
X146733094Y-137456886D01*
X146865758Y-137385976D01*
X147026177Y-137337313D01*
X147151196Y-137325000D01*
X147234804Y-137325000D01*
X147359823Y-137337313D01*
X147359823Y-137337313D01*
G37*
G36*
X154979823Y-134797313D02*
G01*
X155140242Y-134845976D01*
X155272906Y-134916886D01*
X155288078Y-134924996D01*
X155417659Y-135031341D01*
X155524004Y-135160922D01*
X155524005Y-135160924D01*
X155603024Y-135308758D01*
X155651687Y-135469177D01*
X155668117Y-135636000D01*
X155651687Y-135802823D01*
X155603024Y-135963242D01*
X155532114Y-136095906D01*
X155524004Y-136111078D01*
X155417659Y-136240659D01*
X155288078Y-136347004D01*
X155288076Y-136347005D01*
X155140242Y-136426024D01*
X154979823Y-136474687D01*
X154854804Y-136487000D01*
X154771196Y-136487000D01*
X154646177Y-136474687D01*
X154485758Y-136426024D01*
X154337924Y-136347005D01*
X154337922Y-136347004D01*
X154208341Y-136240659D01*
X154101996Y-136111078D01*
X154093886Y-136095906D01*
X154022976Y-135963242D01*
X153974313Y-135802823D01*
X153957883Y-135636000D01*
X153974313Y-135469177D01*
X154022976Y-135308758D01*
X154101995Y-135160924D01*
X154101996Y-135160922D01*
X154208341Y-135031341D01*
X154337922Y-134924996D01*
X154353094Y-134916886D01*
X154485758Y-134845976D01*
X154646177Y-134797313D01*
X154771196Y-134785000D01*
X154854804Y-134785000D01*
X154979823Y-134797313D01*
X154979823Y-134797313D01*
G37*
G36*
X147359823Y-134797313D02*
G01*
X147520242Y-134845976D01*
X147652906Y-134916886D01*
X147668078Y-134924996D01*
X147797659Y-135031341D01*
X147904004Y-135160922D01*
X147904005Y-135160924D01*
X147983024Y-135308758D01*
X148031687Y-135469177D01*
X148048117Y-135636000D01*
X148031687Y-135802823D01*
X147983024Y-135963242D01*
X147912114Y-136095906D01*
X147904004Y-136111078D01*
X147797659Y-136240659D01*
X147668078Y-136347004D01*
X147668076Y-136347005D01*
X147520242Y-136426024D01*
X147359823Y-136474687D01*
X147234804Y-136487000D01*
X147151196Y-136487000D01*
X147026177Y-136474687D01*
X146865758Y-136426024D01*
X146717924Y-136347005D01*
X146717922Y-136347004D01*
X146588341Y-136240659D01*
X146481996Y-136111078D01*
X146473886Y-136095906D01*
X146402976Y-135963242D01*
X146354313Y-135802823D01*
X146337883Y-135636000D01*
X146354313Y-135469177D01*
X146402976Y-135308758D01*
X146481995Y-135160924D01*
X146481996Y-135160922D01*
X146588341Y-135031341D01*
X146717922Y-134924996D01*
X146733094Y-134916886D01*
X146865758Y-134845976D01*
X147026177Y-134797313D01*
X147151196Y-134785000D01*
X147234804Y-134785000D01*
X147359823Y-134797313D01*
X147359823Y-134797313D01*
G37*
G36*
X91694943Y-128552248D02*
G01*
X92250189Y-128782238D01*
X92250190Y-128782239D01*
X92749899Y-129116134D01*
X93174866Y-129541101D01*
X93174867Y-129541103D01*
X93508762Y-130040811D01*
X93738752Y-130596057D01*
X93856000Y-131185501D01*
X93856000Y-131786499D01*
X93738752Y-132375943D01*
X93508762Y-132931189D01*
X93342948Y-133179347D01*
X93174866Y-133430899D01*
X92749899Y-133855866D01*
X92631935Y-133934687D01*
X92250189Y-134189762D01*
X91694943Y-134419752D01*
X91105499Y-134537000D01*
X90504501Y-134537000D01*
X89915057Y-134419752D01*
X89359811Y-134189762D01*
X88978065Y-133934687D01*
X88860101Y-133855866D01*
X88435134Y-133430899D01*
X88267052Y-133179347D01*
X88101238Y-132931189D01*
X87871248Y-132375943D01*
X87754000Y-131786499D01*
X87754000Y-131185501D01*
X87871248Y-130596057D01*
X88101238Y-130040811D01*
X88435133Y-129541103D01*
X88435134Y-129541101D01*
X88860101Y-129116134D01*
X89359810Y-128782239D01*
X89359811Y-128782238D01*
X89915057Y-128552248D01*
X90504501Y-128435000D01*
X91105499Y-128435000D01*
X91694943Y-128552248D01*
X91694943Y-128552248D01*
G37*
G36*
X147359823Y-132257313D02*
G01*
X147520242Y-132305976D01*
X147651141Y-132375943D01*
X147668078Y-132384996D01*
X147797659Y-132491341D01*
X147904004Y-132620922D01*
X147904005Y-132620924D01*
X147983024Y-132768758D01*
X148031687Y-132929177D01*
X148048117Y-133096000D01*
X148031687Y-133262823D01*
X147983024Y-133423242D01*
X147978932Y-133430897D01*
X147904004Y-133571078D01*
X147797659Y-133700659D01*
X147668078Y-133807004D01*
X147668076Y-133807005D01*
X147520242Y-133886024D01*
X147359823Y-133934687D01*
X147234804Y-133947000D01*
X147151196Y-133947000D01*
X147026177Y-133934687D01*
X146865758Y-133886024D01*
X146717924Y-133807005D01*
X146717922Y-133807004D01*
X146588341Y-133700659D01*
X146481996Y-133571078D01*
X146407068Y-133430897D01*
X146402976Y-133423242D01*
X146354313Y-133262823D01*
X146337883Y-133096000D01*
X146354313Y-132929177D01*
X146402976Y-132768758D01*
X146481995Y-132620924D01*
X146481996Y-132620922D01*
X146588341Y-132491341D01*
X146717922Y-132384996D01*
X146734859Y-132375943D01*
X146865758Y-132305976D01*
X147026177Y-132257313D01*
X147151196Y-132245000D01*
X147234804Y-132245000D01*
X147359823Y-132257313D01*
X147359823Y-132257313D01*
G37*
G36*
X154979823Y-132257313D02*
G01*
X155140242Y-132305976D01*
X155271141Y-132375943D01*
X155288078Y-132384996D01*
X155417659Y-132491341D01*
X155524004Y-132620922D01*
X155524005Y-132620924D01*
X155603024Y-132768758D01*
X155651687Y-132929177D01*
X155668117Y-133096000D01*
X155651687Y-133262823D01*
X155603024Y-133423242D01*
X155598932Y-133430897D01*
X155524004Y-133571078D01*
X155417659Y-133700659D01*
X155288078Y-133807004D01*
X155288076Y-133807005D01*
X155140242Y-133886024D01*
X154979823Y-133934687D01*
X154854804Y-133947000D01*
X154771196Y-133947000D01*
X154646177Y-133934687D01*
X154485758Y-133886024D01*
X154337924Y-133807005D01*
X154337922Y-133807004D01*
X154208341Y-133700659D01*
X154101996Y-133571078D01*
X154027068Y-133430897D01*
X154022976Y-133423242D01*
X153974313Y-133262823D01*
X153957883Y-133096000D01*
X153974313Y-132929177D01*
X154022976Y-132768758D01*
X154101995Y-132620924D01*
X154101996Y-132620922D01*
X154208341Y-132491341D01*
X154337922Y-132384996D01*
X154354859Y-132375943D01*
X154485758Y-132305976D01*
X154646177Y-132257313D01*
X154771196Y-132245000D01*
X154854804Y-132245000D01*
X154979823Y-132257313D01*
X154979823Y-132257313D01*
G37*
G36*
X91694943Y-121352248D02*
G01*
X92250189Y-121582238D01*
X92250190Y-121582239D01*
X92749899Y-121916134D01*
X93174866Y-122341101D01*
X93174867Y-122341103D01*
X93508762Y-122840811D01*
X93738752Y-123396057D01*
X93856000Y-123985501D01*
X93856000Y-124586499D01*
X93738752Y-125175943D01*
X93508762Y-125731189D01*
X93508761Y-125731190D01*
X93174866Y-126230899D01*
X92749899Y-126655866D01*
X92498347Y-126823948D01*
X92250189Y-126989762D01*
X91694943Y-127219752D01*
X91105499Y-127337000D01*
X90504501Y-127337000D01*
X89915057Y-127219752D01*
X89359811Y-126989762D01*
X89111653Y-126823948D01*
X88860101Y-126655866D01*
X88435134Y-126230899D01*
X88101239Y-125731190D01*
X88101238Y-125731189D01*
X87871248Y-125175943D01*
X87754000Y-124586499D01*
X87754000Y-123985501D01*
X87871248Y-123396057D01*
X88101238Y-122840811D01*
X88435133Y-122341103D01*
X88435134Y-122341101D01*
X88860101Y-121916134D01*
X89359810Y-121582239D01*
X89359811Y-121582238D01*
X89915057Y-121352248D01*
X90504501Y-121235000D01*
X91105499Y-121235000D01*
X91694943Y-121352248D01*
X91694943Y-121352248D01*
G37*
G36*
X89950228Y-110941703D02*
G01*
X90105100Y-111005853D01*
X90244481Y-111098985D01*
X90363015Y-111217519D01*
X90456147Y-111356900D01*
X90520297Y-111511772D01*
X90553000Y-111676184D01*
X90553000Y-111843816D01*
X90520297Y-112008228D01*
X90456147Y-112163100D01*
X90363015Y-112302481D01*
X90244481Y-112421015D01*
X90105100Y-112514147D01*
X89950228Y-112578297D01*
X89785816Y-112611000D01*
X89618184Y-112611000D01*
X89453772Y-112578297D01*
X89298900Y-112514147D01*
X89159519Y-112421015D01*
X89040985Y-112302481D01*
X88947853Y-112163100D01*
X88883703Y-112008228D01*
X88851000Y-111843816D01*
X88851000Y-111676184D01*
X88883703Y-111511772D01*
X88947853Y-111356900D01*
X89040985Y-111217519D01*
X89159519Y-111098985D01*
X89298900Y-111005853D01*
X89453772Y-110941703D01*
X89618184Y-110909000D01*
X89785816Y-110909000D01*
X89950228Y-110941703D01*
X89950228Y-110941703D01*
G37*
G36*
X93053000Y-112611000D02*
G01*
X91351000Y-112611000D01*
X91351000Y-110909000D01*
X93053000Y-110909000D01*
X93053000Y-112611000D01*
X93053000Y-112611000D01*
G37*
G36*
X127420823Y-108000313D02*
G01*
X127581242Y-108048976D01*
X127713906Y-108119886D01*
X127729078Y-108127996D01*
X127858659Y-108234341D01*
X127965004Y-108363922D01*
X127965005Y-108363924D01*
X128044024Y-108511758D01*
X128092687Y-108672177D01*
X128109117Y-108839000D01*
X128092687Y-109005823D01*
X128044024Y-109166242D01*
X127973114Y-109298906D01*
X127965004Y-109314078D01*
X127858659Y-109443659D01*
X127729078Y-109550004D01*
X127729076Y-109550005D01*
X127581242Y-109629024D01*
X127420823Y-109677687D01*
X127295804Y-109690000D01*
X127212196Y-109690000D01*
X127087177Y-109677687D01*
X126926758Y-109629024D01*
X126778924Y-109550005D01*
X126778922Y-109550004D01*
X126649341Y-109443659D01*
X126542996Y-109314078D01*
X126534886Y-109298906D01*
X126463976Y-109166242D01*
X126415313Y-109005823D01*
X126398883Y-108839000D01*
X126415313Y-108672177D01*
X126463976Y-108511758D01*
X126542995Y-108363924D01*
X126542996Y-108363922D01*
X126649341Y-108234341D01*
X126778922Y-108127996D01*
X126794094Y-108119886D01*
X126926758Y-108048976D01*
X127087177Y-108000313D01*
X127212196Y-107988000D01*
X127295804Y-107988000D01*
X127420823Y-108000313D01*
X127420823Y-108000313D01*
G37*
G36*
X135040823Y-108000313D02*
G01*
X135201242Y-108048976D01*
X135333906Y-108119886D01*
X135349078Y-108127996D01*
X135478659Y-108234341D01*
X135585004Y-108363922D01*
X135585005Y-108363924D01*
X135664024Y-108511758D01*
X135712687Y-108672177D01*
X135729117Y-108839000D01*
X135712687Y-109005823D01*
X135664024Y-109166242D01*
X135593114Y-109298906D01*
X135585004Y-109314078D01*
X135478659Y-109443659D01*
X135349078Y-109550004D01*
X135349076Y-109550005D01*
X135201242Y-109629024D01*
X135040823Y-109677687D01*
X134915804Y-109690000D01*
X134832196Y-109690000D01*
X134707177Y-109677687D01*
X134546758Y-109629024D01*
X134398924Y-109550005D01*
X134398922Y-109550004D01*
X134269341Y-109443659D01*
X134162996Y-109314078D01*
X134154886Y-109298906D01*
X134083976Y-109166242D01*
X134035313Y-109005823D01*
X134018883Y-108839000D01*
X134035313Y-108672177D01*
X134083976Y-108511758D01*
X134162995Y-108363924D01*
X134162996Y-108363922D01*
X134269341Y-108234341D01*
X134398922Y-108127996D01*
X134414094Y-108119886D01*
X134546758Y-108048976D01*
X134707177Y-108000313D01*
X134832196Y-107988000D01*
X134915804Y-107988000D01*
X135040823Y-108000313D01*
X135040823Y-108000313D01*
G37*
G36*
X135040823Y-105460313D02*
G01*
X135201242Y-105508976D01*
X135333906Y-105579886D01*
X135349078Y-105587996D01*
X135478659Y-105694341D01*
X135585004Y-105823922D01*
X135585005Y-105823924D01*
X135664024Y-105971758D01*
X135712687Y-106132177D01*
X135729117Y-106299000D01*
X135712687Y-106465823D01*
X135664024Y-106626242D01*
X135593114Y-106758906D01*
X135585004Y-106774078D01*
X135478659Y-106903659D01*
X135349078Y-107010004D01*
X135349076Y-107010005D01*
X135201242Y-107089024D01*
X135040823Y-107137687D01*
X134915804Y-107150000D01*
X134832196Y-107150000D01*
X134707177Y-107137687D01*
X134546758Y-107089024D01*
X134398924Y-107010005D01*
X134398922Y-107010004D01*
X134269341Y-106903659D01*
X134162996Y-106774078D01*
X134154886Y-106758906D01*
X134083976Y-106626242D01*
X134035313Y-106465823D01*
X134018883Y-106299000D01*
X134035313Y-106132177D01*
X134083976Y-105971758D01*
X134162995Y-105823924D01*
X134162996Y-105823922D01*
X134269341Y-105694341D01*
X134398922Y-105587996D01*
X134414094Y-105579886D01*
X134546758Y-105508976D01*
X134707177Y-105460313D01*
X134832196Y-105448000D01*
X134915804Y-105448000D01*
X135040823Y-105460313D01*
X135040823Y-105460313D01*
G37*
G36*
X127420823Y-105460313D02*
G01*
X127581242Y-105508976D01*
X127713906Y-105579886D01*
X127729078Y-105587996D01*
X127858659Y-105694341D01*
X127965004Y-105823922D01*
X127965005Y-105823924D01*
X128044024Y-105971758D01*
X128092687Y-106132177D01*
X128109117Y-106299000D01*
X128092687Y-106465823D01*
X128044024Y-106626242D01*
X127973114Y-106758906D01*
X127965004Y-106774078D01*
X127858659Y-106903659D01*
X127729078Y-107010004D01*
X127729076Y-107010005D01*
X127581242Y-107089024D01*
X127420823Y-107137687D01*
X127295804Y-107150000D01*
X127212196Y-107150000D01*
X127087177Y-107137687D01*
X126926758Y-107089024D01*
X126778924Y-107010005D01*
X126778922Y-107010004D01*
X126649341Y-106903659D01*
X126542996Y-106774078D01*
X126534886Y-106758906D01*
X126463976Y-106626242D01*
X126415313Y-106465823D01*
X126398883Y-106299000D01*
X126415313Y-106132177D01*
X126463976Y-105971758D01*
X126542995Y-105823924D01*
X126542996Y-105823922D01*
X126649341Y-105694341D01*
X126778922Y-105587996D01*
X126794094Y-105579886D01*
X126926758Y-105508976D01*
X127087177Y-105460313D01*
X127212196Y-105448000D01*
X127295804Y-105448000D01*
X127420823Y-105460313D01*
X127420823Y-105460313D01*
G37*
G36*
X135040823Y-102920313D02*
G01*
X135201242Y-102968976D01*
X135295017Y-103019100D01*
X135349078Y-103047996D01*
X135478659Y-103154341D01*
X135585004Y-103283922D01*
X135585005Y-103283924D01*
X135664024Y-103431758D01*
X135712687Y-103592177D01*
X135729117Y-103759000D01*
X135712687Y-103925823D01*
X135664024Y-104086242D01*
X135593114Y-104218906D01*
X135585004Y-104234078D01*
X135478659Y-104363659D01*
X135349078Y-104470004D01*
X135349076Y-104470005D01*
X135201242Y-104549024D01*
X135040823Y-104597687D01*
X134915804Y-104610000D01*
X134832196Y-104610000D01*
X134707177Y-104597687D01*
X134546758Y-104549024D01*
X134398924Y-104470005D01*
X134398922Y-104470004D01*
X134269341Y-104363659D01*
X134162996Y-104234078D01*
X134154886Y-104218906D01*
X134083976Y-104086242D01*
X134035313Y-103925823D01*
X134018883Y-103759000D01*
X134035313Y-103592177D01*
X134083976Y-103431758D01*
X134162995Y-103283924D01*
X134162996Y-103283922D01*
X134269341Y-103154341D01*
X134398922Y-103047996D01*
X134452983Y-103019100D01*
X134546758Y-102968976D01*
X134707177Y-102920313D01*
X134832196Y-102908000D01*
X134915804Y-102908000D01*
X135040823Y-102920313D01*
X135040823Y-102920313D01*
G37*
G36*
X127420823Y-102920313D02*
G01*
X127581242Y-102968976D01*
X127675017Y-103019100D01*
X127729078Y-103047996D01*
X127858659Y-103154341D01*
X127965004Y-103283922D01*
X127965005Y-103283924D01*
X128044024Y-103431758D01*
X128092687Y-103592177D01*
X128109117Y-103759000D01*
X128092687Y-103925823D01*
X128044024Y-104086242D01*
X127973114Y-104218906D01*
X127965004Y-104234078D01*
X127858659Y-104363659D01*
X127729078Y-104470004D01*
X127729076Y-104470005D01*
X127581242Y-104549024D01*
X127420823Y-104597687D01*
X127295804Y-104610000D01*
X127212196Y-104610000D01*
X127087177Y-104597687D01*
X126926758Y-104549024D01*
X126778924Y-104470005D01*
X126778922Y-104470004D01*
X126649341Y-104363659D01*
X126542996Y-104234078D01*
X126534886Y-104218906D01*
X126463976Y-104086242D01*
X126415313Y-103925823D01*
X126398883Y-103759000D01*
X126415313Y-103592177D01*
X126463976Y-103431758D01*
X126542995Y-103283924D01*
X126542996Y-103283922D01*
X126649341Y-103154341D01*
X126778922Y-103047996D01*
X126832983Y-103019100D01*
X126926758Y-102968976D01*
X127087177Y-102920313D01*
X127212196Y-102908000D01*
X127295804Y-102908000D01*
X127420823Y-102920313D01*
X127420823Y-102920313D01*
G37*
G36*
X89950228Y-101797703D02*
G01*
X90105100Y-101861853D01*
X90244481Y-101954985D01*
X90363015Y-102073519D01*
X90456147Y-102212900D01*
X90520297Y-102367772D01*
X90553000Y-102532184D01*
X90553000Y-102699816D01*
X90520297Y-102864228D01*
X90456147Y-103019100D01*
X90363015Y-103158481D01*
X90244481Y-103277015D01*
X90105100Y-103370147D01*
X89950228Y-103434297D01*
X89785816Y-103467000D01*
X89618184Y-103467000D01*
X89453772Y-103434297D01*
X89298900Y-103370147D01*
X89159519Y-103277015D01*
X89040985Y-103158481D01*
X88947853Y-103019100D01*
X88883703Y-102864228D01*
X88851000Y-102699816D01*
X88851000Y-102532184D01*
X88883703Y-102367772D01*
X88947853Y-102212900D01*
X89040985Y-102073519D01*
X89159519Y-101954985D01*
X89298900Y-101861853D01*
X89453772Y-101797703D01*
X89618184Y-101765000D01*
X89785816Y-101765000D01*
X89950228Y-101797703D01*
X89950228Y-101797703D01*
G37*
G36*
X93053000Y-103467000D02*
G01*
X91351000Y-103467000D01*
X91351000Y-101765000D01*
X93053000Y-101765000D01*
X93053000Y-103467000D01*
X93053000Y-103467000D01*
G37*
G36*
X135040823Y-100380313D02*
G01*
X135201242Y-100428976D01*
X135310435Y-100487341D01*
X135349078Y-100507996D01*
X135478659Y-100614341D01*
X135585004Y-100743922D01*
X135585005Y-100743924D01*
X135664024Y-100891758D01*
X135712687Y-101052177D01*
X135729117Y-101219000D01*
X135712687Y-101385823D01*
X135664024Y-101546242D01*
X135593114Y-101678906D01*
X135585004Y-101694078D01*
X135478659Y-101823659D01*
X135349078Y-101930004D01*
X135349076Y-101930005D01*
X135201242Y-102009024D01*
X135040823Y-102057687D01*
X134915804Y-102070000D01*
X134832196Y-102070000D01*
X134707177Y-102057687D01*
X134546758Y-102009024D01*
X134398924Y-101930005D01*
X134398922Y-101930004D01*
X134269341Y-101823659D01*
X134162996Y-101694078D01*
X134154886Y-101678906D01*
X134083976Y-101546242D01*
X134035313Y-101385823D01*
X134018883Y-101219000D01*
X134035313Y-101052177D01*
X134083976Y-100891758D01*
X134162995Y-100743924D01*
X134162996Y-100743922D01*
X134269341Y-100614341D01*
X134398922Y-100507996D01*
X134437565Y-100487341D01*
X134546758Y-100428976D01*
X134707177Y-100380313D01*
X134832196Y-100368000D01*
X134915804Y-100368000D01*
X135040823Y-100380313D01*
X135040823Y-100380313D01*
G37*
G36*
X128105000Y-102070000D02*
G01*
X126403000Y-102070000D01*
X126403000Y-100368000D01*
X128105000Y-100368000D01*
X128105000Y-102070000D01*
X128105000Y-102070000D01*
G37*
G36*
X167298823Y-100253313D02*
G01*
X167459242Y-100301976D01*
X167582764Y-100368000D01*
X167607078Y-100380996D01*
X167736659Y-100487341D01*
X167843004Y-100616922D01*
X167843005Y-100616924D01*
X167922024Y-100764758D01*
X167970687Y-100925177D01*
X167987117Y-101092000D01*
X167970687Y-101258823D01*
X167922024Y-101419242D01*
X167854143Y-101546239D01*
X167843004Y-101567078D01*
X167736659Y-101696659D01*
X167607078Y-101803004D01*
X167607076Y-101803005D01*
X167459242Y-101882024D01*
X167298823Y-101930687D01*
X167173804Y-101943000D01*
X167090196Y-101943000D01*
X166965177Y-101930687D01*
X166804758Y-101882024D01*
X166656924Y-101803005D01*
X166656922Y-101803004D01*
X166527341Y-101696659D01*
X166420996Y-101567078D01*
X166409857Y-101546239D01*
X166341976Y-101419242D01*
X166293313Y-101258823D01*
X166276883Y-101092000D01*
X166293313Y-100925177D01*
X166341976Y-100764758D01*
X166420995Y-100616924D01*
X166420996Y-100616922D01*
X166527341Y-100487341D01*
X166656922Y-100380996D01*
X166681236Y-100368000D01*
X166804758Y-100301976D01*
X166965177Y-100253313D01*
X167090196Y-100241000D01*
X167173804Y-100241000D01*
X167298823Y-100253313D01*
X167298823Y-100253313D01*
G37*
G36*
X160363000Y-101943000D02*
G01*
X158661000Y-101943000D01*
X158661000Y-100241000D01*
X160363000Y-100241000D01*
X160363000Y-101943000D01*
X160363000Y-101943000D01*
G37*
G36*
X150170104Y-88771585D02*
G01*
X150338626Y-88841389D01*
X150490291Y-88942728D01*
X150619272Y-89071709D01*
X150720611Y-89223374D01*
X150790415Y-89391896D01*
X150826000Y-89570797D01*
X150826000Y-89753203D01*
X150790415Y-89932104D01*
X150720611Y-90100626D01*
X150619272Y-90252291D01*
X150490291Y-90381272D01*
X150338626Y-90482611D01*
X150170104Y-90552415D01*
X149991203Y-90588000D01*
X149808797Y-90588000D01*
X149629896Y-90552415D01*
X149461374Y-90482611D01*
X149309709Y-90381272D01*
X149180728Y-90252291D01*
X149079389Y-90100626D01*
X149009585Y-89932104D01*
X148974000Y-89753203D01*
X148974000Y-89570797D01*
X149009585Y-89391896D01*
X149079389Y-89223374D01*
X149180728Y-89071709D01*
X149309709Y-88942728D01*
X149461374Y-88841389D01*
X149629896Y-88771585D01*
X149808797Y-88736000D01*
X149991203Y-88736000D01*
X150170104Y-88771585D01*
X150170104Y-88771585D01*
G37*
G36*
X138594000Y-90588000D02*
G01*
X136742000Y-90588000D01*
X136742000Y-88736000D01*
X138594000Y-88736000D01*
X138594000Y-90588000D01*
X138594000Y-90588000D01*
G37*
G36*
X135438104Y-88771585D02*
G01*
X135606626Y-88841389D01*
X135758291Y-88942728D01*
X135887272Y-89071709D01*
X135988611Y-89223374D01*
X136058415Y-89391896D01*
X136094000Y-89570797D01*
X136094000Y-89753203D01*
X136058415Y-89932104D01*
X135988611Y-90100626D01*
X135887272Y-90252291D01*
X135758291Y-90381272D01*
X135606626Y-90482611D01*
X135438104Y-90552415D01*
X135259203Y-90588000D01*
X135076797Y-90588000D01*
X134897896Y-90552415D01*
X134729374Y-90482611D01*
X134577709Y-90381272D01*
X134448728Y-90252291D01*
X134347389Y-90100626D01*
X134277585Y-89932104D01*
X134242000Y-89753203D01*
X134242000Y-89570797D01*
X134277585Y-89391896D01*
X134347389Y-89223374D01*
X134448728Y-89071709D01*
X134577709Y-88942728D01*
X134729374Y-88841389D01*
X134897896Y-88771585D01*
X135076797Y-88736000D01*
X135259203Y-88736000D01*
X135438104Y-88771585D01*
X135438104Y-88771585D01*
G37*
G36*
X132938104Y-88771585D02*
G01*
X133106626Y-88841389D01*
X133258291Y-88942728D01*
X133387272Y-89071709D01*
X133488611Y-89223374D01*
X133558415Y-89391896D01*
X133594000Y-89570797D01*
X133594000Y-89753203D01*
X133558415Y-89932104D01*
X133488611Y-90100626D01*
X133387272Y-90252291D01*
X133258291Y-90381272D01*
X133106626Y-90482611D01*
X132938104Y-90552415D01*
X132759203Y-90588000D01*
X132576797Y-90588000D01*
X132397896Y-90552415D01*
X132229374Y-90482611D01*
X132077709Y-90381272D01*
X131948728Y-90252291D01*
X131847389Y-90100626D01*
X131777585Y-89932104D01*
X131742000Y-89753203D01*
X131742000Y-89570797D01*
X131777585Y-89391896D01*
X131847389Y-89223374D01*
X131948728Y-89071709D01*
X132077709Y-88942728D01*
X132229374Y-88841389D01*
X132397896Y-88771585D01*
X132576797Y-88736000D01*
X132759203Y-88736000D01*
X132938104Y-88771585D01*
X132938104Y-88771585D01*
G37*
G36*
X127938104Y-88771585D02*
G01*
X128106626Y-88841389D01*
X128258291Y-88942728D01*
X128387272Y-89071709D01*
X128488611Y-89223374D01*
X128558415Y-89391896D01*
X128594000Y-89570797D01*
X128594000Y-89753203D01*
X128558415Y-89932104D01*
X128488611Y-90100626D01*
X128387272Y-90252291D01*
X128258291Y-90381272D01*
X128106626Y-90482611D01*
X127938104Y-90552415D01*
X127759203Y-90588000D01*
X127576797Y-90588000D01*
X127397896Y-90552415D01*
X127229374Y-90482611D01*
X127077709Y-90381272D01*
X126948728Y-90252291D01*
X126847389Y-90100626D01*
X126777585Y-89932104D01*
X126742000Y-89753203D01*
X126742000Y-89570797D01*
X126777585Y-89391896D01*
X126847389Y-89223374D01*
X126948728Y-89071709D01*
X127077709Y-88942728D01*
X127229374Y-88841389D01*
X127397896Y-88771585D01*
X127576797Y-88736000D01*
X127759203Y-88736000D01*
X127938104Y-88771585D01*
X127938104Y-88771585D01*
G37*
G36*
X145170104Y-88771585D02*
G01*
X145338626Y-88841389D01*
X145490291Y-88942728D01*
X145619272Y-89071709D01*
X145720611Y-89223374D01*
X145790415Y-89391896D01*
X145826000Y-89570797D01*
X145826000Y-89753203D01*
X145790415Y-89932104D01*
X145720611Y-90100626D01*
X145619272Y-90252291D01*
X145490291Y-90381272D01*
X145338626Y-90482611D01*
X145170104Y-90552415D01*
X144991203Y-90588000D01*
X144808797Y-90588000D01*
X144629896Y-90552415D01*
X144461374Y-90482611D01*
X144309709Y-90381272D01*
X144180728Y-90252291D01*
X144079389Y-90100626D01*
X144009585Y-89932104D01*
X143974000Y-89753203D01*
X143974000Y-89570797D01*
X144009585Y-89391896D01*
X144079389Y-89223374D01*
X144180728Y-89071709D01*
X144309709Y-88942728D01*
X144461374Y-88841389D01*
X144629896Y-88771585D01*
X144808797Y-88736000D01*
X144991203Y-88736000D01*
X145170104Y-88771585D01*
X145170104Y-88771585D01*
G37*
G36*
X147670104Y-88771585D02*
G01*
X147838626Y-88841389D01*
X147990291Y-88942728D01*
X148119272Y-89071709D01*
X148220611Y-89223374D01*
X148290415Y-89391896D01*
X148326000Y-89570797D01*
X148326000Y-89753203D01*
X148290415Y-89932104D01*
X148220611Y-90100626D01*
X148119272Y-90252291D01*
X147990291Y-90381272D01*
X147838626Y-90482611D01*
X147670104Y-90552415D01*
X147491203Y-90588000D01*
X147308797Y-90588000D01*
X147129896Y-90552415D01*
X146961374Y-90482611D01*
X146809709Y-90381272D01*
X146680728Y-90252291D01*
X146579389Y-90100626D01*
X146509585Y-89932104D01*
X146474000Y-89753203D01*
X146474000Y-89570797D01*
X146509585Y-89391896D01*
X146579389Y-89223374D01*
X146680728Y-89071709D01*
X146809709Y-88942728D01*
X146961374Y-88841389D01*
X147129896Y-88771585D01*
X147308797Y-88736000D01*
X147491203Y-88736000D01*
X147670104Y-88771585D01*
X147670104Y-88771585D01*
G37*
G36*
X153326000Y-90588000D02*
G01*
X151474000Y-90588000D01*
X151474000Y-88736000D01*
X153326000Y-88736000D01*
X153326000Y-90588000D01*
X153326000Y-90588000D01*
G37*
G36*
X130438104Y-88771585D02*
G01*
X130606626Y-88841389D01*
X130758291Y-88942728D01*
X130887272Y-89071709D01*
X130988611Y-89223374D01*
X131058415Y-89391896D01*
X131094000Y-89570797D01*
X131094000Y-89753203D01*
X131058415Y-89932104D01*
X130988611Y-90100626D01*
X130887272Y-90252291D01*
X130758291Y-90381272D01*
X130606626Y-90482611D01*
X130438104Y-90552415D01*
X130259203Y-90588000D01*
X130076797Y-90588000D01*
X129897896Y-90552415D01*
X129729374Y-90482611D01*
X129577709Y-90381272D01*
X129448728Y-90252291D01*
X129347389Y-90100626D01*
X129277585Y-89932104D01*
X129242000Y-89753203D01*
X129242000Y-89570797D01*
X129277585Y-89391896D01*
X129347389Y-89223374D01*
X129448728Y-89071709D01*
X129577709Y-88942728D01*
X129729374Y-88841389D01*
X129897896Y-88771585D01*
X130076797Y-88736000D01*
X130259203Y-88736000D01*
X130438104Y-88771585D01*
X130438104Y-88771585D01*
G37*
G36*
X118655000Y-90461000D02*
G01*
X116803000Y-90461000D01*
X116803000Y-88609000D01*
X118655000Y-88609000D01*
X118655000Y-90461000D01*
X118655000Y-90461000D01*
G37*
G36*
X115499104Y-88644585D02*
G01*
X115667626Y-88714389D01*
X115819291Y-88815728D01*
X115948272Y-88944709D01*
X116049611Y-89096374D01*
X116119415Y-89264896D01*
X116155000Y-89443797D01*
X116155000Y-89626203D01*
X116119415Y-89805104D01*
X116049611Y-89973626D01*
X115948272Y-90125291D01*
X115819291Y-90254272D01*
X115667626Y-90355611D01*
X115499104Y-90425415D01*
X115320203Y-90461000D01*
X115137797Y-90461000D01*
X114958896Y-90425415D01*
X114790374Y-90355611D01*
X114638709Y-90254272D01*
X114509728Y-90125291D01*
X114408389Y-89973626D01*
X114338585Y-89805104D01*
X114303000Y-89626203D01*
X114303000Y-89443797D01*
X114338585Y-89264896D01*
X114408389Y-89096374D01*
X114509728Y-88944709D01*
X114638709Y-88815728D01*
X114790374Y-88714389D01*
X114958896Y-88644585D01*
X115137797Y-88609000D01*
X115320203Y-88609000D01*
X115499104Y-88644585D01*
X115499104Y-88644585D01*
G37*
M02*
